<svg version="1.1" xmlns="http://www.w3.org/2000/svg" xmlns:xlink="http://www.w3.org/1999/xlink" width="739" height="528"><defs></defs><g><g transform="translate(2,2) scale(1,1)"><rect fill="#C0C0C0" stroke="none" x="303" y="15" width="149" height="102" opacity="0.2"></rect></g><g transform="translate(2,2) scale(1,1)"><rect fill="#ffffff" stroke="none" x="296" y="8" width="149" height="102"></rect></g><g transform="translate(2,2) scale(1,1)"><path fill="none" stroke="#000000" d="M 296 8 L 445 8 L 445 110 L 296 110 L 296 8 Z Z" stroke-miterlimit="10"></path></g><g transform="translate(2,2) scale(1,1)"><path fill="none" stroke="#000000" d="M 299 8 L 299 110" stroke-miterlimit="10"></path></g><g transform="translate(2,2) scale(1,1)"><path fill="none" stroke="#000000" d="M 442 8 L 442 110" stroke-miterlimit="10"></path></g><g transform="translate(2,2) scale(1,1)"><path fill="none" stroke="#000000" d="M 296 48 L 445 48" stroke-miterlimit="10"></path></g><g transform="translate(2,2) scale(1,1)"><path fill="none" stroke="#000000" d="M 296 101 L 445 101" stroke-miterlimit="10"></path></g><g transform="translate(2,2) scale(1,1)"><g><path fill="none" stroke="none"></path><text fill="#000000" stroke="none" font-family="Arial" font-size="13px" font-style="normal" font-weight="bold" text-decoration="none" x="344.5" y="27.5">GLaDOS</text></g></g><g transform="translate(2,2) scale(1,1)"><g><path fill="none" stroke="none"></path><text fill="#000000" stroke="none" font-family="Arial" font-size="13px" font-style="normal" font-weight="normal" text-decoration="none" x="332" y="42.5">(from control)</text></g></g><g transform="translate(2,2) scale(1,1)"><g><path fill="none" stroke="none"></path><text fill="#000000" stroke="none" font-family="Arial" font-size="13px" font-style="normal" font-weight="normal" text-decoration="none" x="301" y="65.5">-outputs: Output[0..*]</text></g></g><g transform="translate(2,2) scale(1,1)"><g><path fill="none" stroke="none"></path><text fill="#000000" stroke="none" font-family="Arial" font-size="13px" font-style="normal" font-weight="normal" text-decoration="none" x="301" y="80.5">-inputs: Input[0..*]</text></g></g><g transform="translate(2,2) scale(1,1)"><g><path fill="none" stroke="none"></path><text fill="#000000" stroke="none" font-family="Arial" font-size="13px" font-style="normal" font-weight="normal" text-decoration="none" x="301" y="95.5">-personality: Personality</text></g></g><g transform="translate(2,2) scale(1,1)"><rect fill="#C0C0C0" stroke="none" x="607" y="79" width="119" height="62" opacity="0.2"></rect></g><g transform="translate(2,2) scale(1,1)"><rect fill="#ffffff" stroke="none" x="600" y="72" width="119" height="62"></rect></g><g transform="translate(2,2) scale(1,1)"><path fill="none" stroke="#000000" d="M 600 72 L 719 72 L 719 134 L 600 134 L 600 72 Z Z" stroke-miterlimit="10"></path></g><g transform="translate(2,2) scale(1,1)"><path fill="none" stroke="#000000" d="M 600 112 L 719 112" stroke-miterlimit="10"></path></g><g transform="translate(2,2) scale(1,1)"><g><path fill="none" stroke="none"></path><text fill="#000000" stroke="none" font-family="Arial" font-size="13px" font-style="italic" font-weight="bold" text-decoration="none" x="614.5" y="91.5">AbstractSensor</text></g></g><g transform="translate(2,2) scale(1,1)"><g><path fill="none" stroke="none"></path><text fill="#000000" stroke="none" font-family="Arial" font-size="13px" font-style="normal" font-weight="normal" text-decoration="none" x="621" y="106.5">(from sensor)</text></g></g><g transform="translate(2,2) scale(1,1)"><g><path fill="none" stroke="none"></path><text fill="#000000" stroke="none" font-family="Arial" font-size="13px" font-style="normal" font-weight="normal" text-decoration="none" x="605" y="129.5">+getName(): String</text></g></g><g transform="translate(2,2) scale(1,1)"><rect fill="#C0C0C0" stroke="none" x="47" y="351" width="100" height="59" opacity="0.2"></rect></g><g transform="translate(2,2) scale(1,1)"><rect fill="#ffffff" stroke="none" x="40" y="344" width="100" height="59"></rect></g><g transform="translate(2,2) scale(1,1)"><path fill="none" stroke="#000000" d="M 40 344 L 140 344 L 140 403 L 40 403 L 40 344 Z Z" stroke-miterlimit="10"></path></g><g transform="translate(2,2) scale(1,1)"><path fill="none" stroke="#000000" d="M 40 384 L 140 384" stroke-miterlimit="10"></path></g><g transform="translate(2,2) scale(1,1)"><path fill="none" stroke="#000000" d="M 40 394 L 140 394" stroke-miterlimit="10"></path></g><g transform="translate(2,2) scale(1,1)"><g><path fill="none" stroke="none"></path><text fill="#000000" stroke="none" font-family="Arial" font-size="13px" font-style="normal" font-weight="bold" text-decoration="none" x="48.5" y="363.5">MonitoringGUI</text></g></g><g transform="translate(2,2) scale(1,1)"><g><path fill="none" stroke="none"></path><text fill="#000000" stroke="none" font-family="Arial" font-size="13px" font-style="normal" font-weight="normal" text-decoration="none" x="62.5" y="378.5">(from gui)</text></g></g><g transform="translate(2,2) scale(1,1)"><rect fill="#C0C0C0" stroke="none" x="215" y="215" width="329" height="135" opacity="0.2"></rect></g><g transform="translate(2,2) scale(1,1)"><rect fill="#ffffff" stroke="none" x="208" y="208" width="329" height="135"></rect></g><g transform="translate(2,2) scale(1,1)"><path fill="none" stroke="#000000" d="M 208 208 L 537 208 L 537 343 L 208 343 L 208 208 Z Z" stroke-miterlimit="10"></path></g><g transform="translate(2,2) scale(1,1)"><path fill="none" stroke="#000000" d="M 208 261 L 537 261" stroke-miterlimit="10"></path></g><g transform="translate(2,2) scale(1,1)"><g><path fill="none" stroke="none"></path><text fill="#000000" stroke="none" font-family="Arial" font-size="13px" font-style="normal" font-weight="normal" text-decoration="none" x="340.5" y="225.5">«interface»</text></g></g><g transform="translate(2,2) scale(1,1)"><g><path fill="none" stroke="none"></path><text fill="#000000" stroke="none" font-family="Arial" font-size="13px" font-style="italic" font-weight="bold" text-decoration="none" x="366" y="240.5">AI</text></g></g><g transform="translate(2,2) scale(1,1)"><g><path fill="none" stroke="none"></path><text fill="#000000" stroke="none" font-family="Arial" font-size="13px" font-style="normal" font-weight="normal" text-decoration="none" x="337.5" y="255.5">(from entity)</text></g></g><g transform="translate(2,2) scale(1,1)"><g><path fill="none" stroke="none"></path><text fill="#000000" stroke="none" font-family="Arial" font-size="13px" font-style="normal" font-weight="normal" text-decoration="none" x="213" y="278.5">+setPersonality(personality: Personality)</text></g></g><g transform="translate(2,2) scale(1,1)"><g><path fill="none" stroke="none"></path><text fill="#000000" stroke="none" font-family="Arial" font-size="13px" font-style="normal" font-weight="normal" text-decoration="none" x="213" y="293.5">+registerView(view: Output)</text></g></g><g transform="translate(2,2) scale(1,1)"><g><path fill="none" stroke="none"></path><text fill="#000000" stroke="none" font-family="Arial" font-size="13px" font-style="normal" font-weight="normal" text-decoration="none" x="213" y="308.5">+computeSuggestion(s: Subject, e: Event): Suggestion</text></g></g><g transform="translate(2,2) scale(1,1)"><g><path fill="none" stroke="none"></path><text fill="#000000" stroke="none" font-family="Arial" font-size="13px" font-style="normal" font-weight="normal" text-decoration="none" x="213" y="323.5">+registerInputSource(in: Input)</text></g></g><g transform="translate(2,2) scale(1,1)"><g><path fill="none" stroke="none"></path><text fill="#000000" stroke="none" font-family="Arial" font-size="13px" font-style="normal" font-weight="normal" text-decoration="none" x="213" y="338.5">+addKitchen(kitchen: Kitchen)</text></g></g><g transform="translate(2,2) scale(1,1)"><path fill="none" stroke="#000000" d="M 370 111 L 371 207" stroke-miterlimit="10"></path></g><g transform="translate(2,2) scale(1,1)"><path fill="#FFFFFF" stroke="none" d="M 362.3697103055824 186.76344644485062 L 371 207 L 379.2068678801638 186.58805938678208"></path></g><g transform="translate(2,2) scale(1,1)"><path fill="none" stroke="#000000" d="M 362.3697103055824 186.76344644485062 L 371 207 L 379.2068678801638 186.58805938678208 L 362.3697103055824 186.76344644485062" stroke-miterlimit="10"></path></g><g transform="translate(2,2) scale(1,1)"><rect fill="#C0C0C0" stroke="none" x="343" y="471" width="79" height="52" opacity="0.2"></rect></g><g transform="translate(2,2) scale(1,1)"><rect fill="#ffffff" stroke="none" x="336" y="464" width="79" height="52"></rect></g><g transform="translate(2,2) scale(1,1)"><path fill="none" stroke="#000000" d="M 336 464 L 415 464 L 415 516 L 336 516 L 336 464 Z Z" stroke-miterlimit="10"></path></g><g transform="translate(2,2) scale(1,1)"><g><path fill="none" stroke="none"></path><text fill="#000000" stroke="none" font-family="Arial" font-size="13px" font-style="normal" font-weight="normal" text-decoration="none" x="343.5" y="481.5">«interface»</text></g></g><g transform="translate(2,2) scale(1,1)"><g><path fill="none" stroke="none"></path><text fill="#000000" stroke="none" font-family="Arial" font-size="13px" font-style="italic" font-weight="bold" text-decoration="none" x="358.5" y="496.5">Event</text></g></g><g transform="translate(2,2) scale(1,1)"><g><path fill="none" stroke="none"></path><text fill="#000000" stroke="none" font-family="Arial" font-size="13px" font-style="normal" font-weight="normal" text-decoration="none" x="340.5" y="511.5">(from entity)</text></g></g><g transform="translate(2,2) scale(1,1)"><path fill="none" stroke="#000000" d="M 373 344 L 375 463" stroke-miterlimit="10"></path></g><g transform="translate(2,2) scale(1,1)"><rect fill="#C0C0C0" stroke="none" x="599" y="239" width="135" height="75" opacity="0.2"></rect></g><g transform="translate(2,2) scale(1,1)"><rect fill="#ffffff" stroke="none" x="592" y="232" width="135" height="75"></rect></g><g transform="translate(2,2) scale(1,1)"><path fill="none" stroke="#000000" d="M 592 232 L 727 232 L 727 307 L 592 307 L 592 232 Z Z" stroke-miterlimit="10"></path></g><g transform="translate(2,2) scale(1,1)"><path fill="none" stroke="#000000" d="M 592 285 L 727 285" stroke-miterlimit="10"></path></g><g transform="translate(2,2) scale(1,1)"><g><path fill="none" stroke="none"></path><text fill="#000000" stroke="none" font-family="Arial" font-size="13px" font-style="normal" font-weight="normal" text-decoration="none" x="627.5" y="249.5">«interface»</text></g></g><g transform="translate(2,2) scale(1,1)"><g><path fill="none" stroke="none"></path><text fill="#000000" stroke="none" font-family="Arial" font-size="13px" font-style="italic" font-weight="bold" text-decoration="none" x="645" y="264.5">Input</text></g></g><g transform="translate(2,2) scale(1,1)"><g><path fill="none" stroke="none"></path><text fill="#000000" stroke="none" font-family="Arial" font-size="13px" font-style="normal" font-weight="normal" text-decoration="none" x="614" y="279.5">(from boundary)</text></g></g><g transform="translate(2,2) scale(1,1)"><g><path fill="none" stroke="none"></path><text fill="#000000" stroke="none" font-family="Arial" font-size="13px" font-style="normal" font-weight="normal" text-decoration="none" x="597" y="302.5">+getBlocking(): Event</text></g></g><g transform="translate(2,2) scale(1,1)"><rect fill="#C0C0C0" stroke="none" x="15" y="239" width="158" height="75" opacity="0.2"></rect></g><g transform="translate(2,2) scale(1,1)"><rect fill="#ffffff" stroke="none" x="8" y="232" width="158" height="75"></rect></g><g transform="translate(2,2) scale(1,1)"><path fill="none" stroke="#000000" d="M 8 232 L 166 232 L 166 307 L 8 307 L 8 232 Z Z" stroke-miterlimit="10"></path></g><g transform="translate(2,2) scale(1,1)"><path fill="none" stroke="#000000" d="M 8 285 L 166 285" stroke-miterlimit="10"></path></g><g transform="translate(2,2) scale(1,1)"><g><path fill="none" stroke="none"></path><text fill="#000000" stroke="none" font-family="Arial" font-size="13px" font-style="normal" font-weight="normal" text-decoration="none" x="55" y="249.5">«interface»</text></g></g><g transform="translate(2,2) scale(1,1)"><g><path fill="none" stroke="none"></path><text fill="#000000" stroke="none" font-family="Arial" font-size="13px" font-style="italic" font-weight="bold" text-decoration="none" x="67.5" y="264.5">Output</text></g></g><g transform="translate(2,2) scale(1,1)"><g><path fill="none" stroke="none"></path><text fill="#000000" stroke="none" font-family="Arial" font-size="13px" font-style="normal" font-weight="normal" text-decoration="none" x="41.5" y="279.5">(from boundary)</text></g></g><g transform="translate(2,2) scale(1,1)"><g><path fill="none" stroke="none"></path><text fill="#000000" stroke="none" font-family="Arial" font-size="13px" font-style="normal" font-weight="normal" text-decoration="none" x="13" y="302.5">+update(subject: Subject)</text></g></g><g transform="translate(2,2) scale(1,1)"><path fill="none" stroke="#000000" d="M 442 111 L 607 231" stroke-miterlimit="10"></path></g><g transform="translate(2,2) scale(1,1)"><path fill="#FFFFFF" stroke="none" d="M 596.3051589246494 228.4269911828768 L 607 231 L 601.2569973345478 221.61821336926658 L 589.2078061453299 218.060222651149"></path></g><g transform="translate(2,2) scale(1,1)"><path fill="none" stroke="#000000" d="M 596.3051589246494 228.4269911828768 L 607 231 L 601.2569973345478 221.61821336926658 L 589.2078061453299 218.060222651149 L 596.3051589246494 228.4269911828768" stroke-miterlimit="10"></path></g><g transform="translate(2,2) scale(1,1)"><path fill="none" stroke="#000000" d="M 300 111 L 138 231" stroke-miterlimit="10"></path></g><g transform="translate(2,2) scale(1,1)"><path fill="#FFFFFF" stroke="none" d="M 143.66066954223874 221.56830766333152 L 138 231 L 148.67191142869663 228.33348421004968 L 155.6782582535844 217.90499388623377"></path></g><g transform="translate(2,2) scale(1,1)"><path fill="none" stroke="#000000" d="M 143.66066954223874 221.56830766333152 L 138 231 L 148.67191142869663 228.33348421004968 L 155.6782582535844 217.90499388623377 L 143.66066954223874 221.56830766333152" stroke-miterlimit="10"></path></g><g transform="translate(2,2) scale(1,1)"><path fill="none" stroke="#000000" d="M 659 135 L 659 231" stroke-miterlimit="10"></path></g><g transform="translate(2,2) scale(1,1)"><path fill="#FFFFFF" stroke="none" d="M 650.580964487968 210.6746502847517 L 659 231 L 667.419035512032 210.6746502847517"></path></g><g transform="translate(2,2) scale(1,1)"><path fill="none" stroke="#000000" d="M 650.580964487968 210.6746502847517 L 659 231 L 667.419035512032 210.6746502847517 L 650.580964487968 210.6746502847517" stroke-miterlimit="10"></path></g><g transform="translate(2,2) scale(1,1)"><path fill="none" stroke="#000000" d="M 609 308 L 410 463" stroke-miterlimit="10"></path></g><g transform="translate(2,2) scale(1,1)"><path fill="none" stroke="#000000" d="M 207 272 L 167 271" stroke-miterlimit="10"></path></g><g transform="translate(2,2) scale(1,1)"><path fill="#FFFFFF" stroke="none" d="M 177.26470558207993 267.0457846147159 L 167 271 L 177.05429543717867 275.4621904107656 L 188.9931282209787 271.5498282055245"></path></g><g transform="translate(2,2) scale(1,1)"><path fill="none" stroke="#000000" d="M 177.26470558207993 267.0457846147159 L 167 271 L 177.05429543717867 275.4621904107656 L 188.9931282209787 271.5498282055245 L 177.26470558207993 267.0457846147159" stroke-miterlimit="10"></path></g><g transform="translate(2,2) scale(1,1)"><path fill="none" stroke="#000000" d="M 538 272 L 591 270" stroke-miterlimit="10"></path></g><g transform="translate(2,2) scale(1,1)"><path fill="#FFFFFF" stroke="none" d="M 581.0032899660283 274.5897481953469 L 591 270 L 580.6858164725545 266.17670061829153 L 569.0156472281531 270.82959821780554"></path></g><g transform="translate(2,2) scale(1,1)"><path fill="none" stroke="#000000" d="M 581.0032899660283 274.5897481953469 L 591 270 L 580.6858164725545 266.17670061829153 L 569.0156472281531 270.82959821780554 L 581.0032899660283 274.5897481953469" stroke-miterlimit="10"></path></g><g transform="translate(2,2) scale(1,1)"><path fill="none" stroke="#000000" d="M 89 343 L 88 308" stroke-miterlimit="10"></path></g><g transform="translate(2,2) scale(1,1)"><path fill="#FFFFFF" stroke="none" d="M 96.99608866574182 328.0766129792381 L 88 308 L 80.16488611882437 328.5575044805786"></path></g><g transform="translate(2,2) scale(1,1)"><path fill="none" stroke="#000000" d="M 96.99608866574182 328.0766129792381 L 88 308 L 80.16488611882437 328.5575044805786 L 96.99608866574182 328.0766129792381" stroke-miterlimit="10"></path></g></g></svg>