<svg version="1.1" xmlns="http://www.w3.org/2000/svg" xmlns:xlink="http://www.w3.org/1999/xlink" width="549" height="536"><defs></defs><g><g transform="translate(-6,10) scale(1,1)"><rect fill="#C0C0C0" stroke="none" x="23" y="135" width="329" height="120" opacity="0.2"></rect></g><g transform="translate(-6,10) scale(1,1)"><rect fill="#ffffff" stroke="none" x="16" y="128" width="329" height="120"></rect></g><g transform="translate(-6,10) scale(1,1)"><path fill="none" stroke="#000000" d="M 16 128 L 345 128 L 345 248 L 16 248 L 16 128 Z Z" stroke-miterlimit="10"></path></g><g transform="translate(-6,10) scale(1,1)"><path fill="none" stroke="#000000" d="M 16 166 L 345 166" stroke-miterlimit="10"></path></g><g transform="translate(-6,10) scale(1,1)"><g><path fill="none" stroke="none"></path><text fill="#000000" stroke="none" font-family="Arial" font-size="13px" font-style="normal" font-weight="normal" text-decoration="none" x="148.5" y="145.5">«interface»</text></g></g><g transform="translate(-6,10) scale(1,1)"><g><path fill="none" stroke="none"></path><text fill="#000000" stroke="none" font-family="Arial" font-size="13px" font-style="italic" font-weight="bold" text-decoration="none" x="174" y="160.5">AI</text></g></g><g transform="translate(-6,10) scale(1,1)"><g><path fill="none" stroke="none"></path><text fill="#000000" stroke="none" font-family="Arial" font-size="13px" font-style="normal" font-weight="normal" text-decoration="none" x="21" y="183.5">+setPersonality(personality: Personality)</text></g></g><g transform="translate(-6,10) scale(1,1)"><g><path fill="none" stroke="none"></path><text fill="#000000" stroke="none" font-family="Arial" font-size="13px" font-style="normal" font-weight="normal" text-decoration="none" x="21" y="198.5">+registerView(view: Output)</text></g></g><g transform="translate(-6,10) scale(1,1)"><g><path fill="none" stroke="none"></path><text fill="#000000" stroke="none" font-family="Arial" font-size="13px" font-style="normal" font-weight="normal" text-decoration="none" x="21" y="213.5">+computeSuggestion(s: Subject, e: Event): Suggestion</text></g></g><g transform="translate(-6,10) scale(1,1)"><g><path fill="none" stroke="none"></path><text fill="#000000" stroke="none" font-family="Arial" font-size="13px" font-style="normal" font-weight="normal" text-decoration="none" x="21" y="228.5">+registerInputSource(in: Input)</text></g></g><g transform="translate(-6,10) scale(1,1)"><g><path fill="none" stroke="none"></path><text fill="#000000" stroke="none" font-family="Arial" font-size="13px" font-style="normal" font-weight="normal" text-decoration="none" x="21" y="243.5">+addKitchen(kitchen: Kitchen)</text></g></g><g transform="translate(-6,10) scale(1,1)"><rect fill="#C0C0C0" stroke="none" x="23" y="7" width="80" height="37" opacity="0.2"></rect></g><g transform="translate(-6,10) scale(1,1)"><rect fill="#ffffff" stroke="none" x="16" y="0" width="80" height="37"></rect></g><g transform="translate(-6,10) scale(1,1)"><path fill="none" stroke="#000000" d="M 16 0 L 96 0 L 96 37 L 16 37 L 16 0 Z Z" stroke-miterlimit="10"></path></g><g transform="translate(-6,10) scale(1,1)"><g><path fill="none" stroke="none"></path><text fill="#000000" stroke="none" font-family="Arial" font-size="13px" font-style="normal" font-weight="normal" text-decoration="none" x="24" y="17.5">«interface»</text></g></g><g transform="translate(-6,10) scale(1,1)"><g><path fill="none" stroke="none"></path><text fill="#000000" stroke="none" font-family="Arial" font-size="13px" font-style="italic" font-weight="bold" text-decoration="none" x="23.5" y="32.5">Suggestion</text></g></g><g transform="translate(-6,10) scale(1,1)"><path fill="none" stroke="#000000" d="M 136 127 L 71 38" stroke-miterlimit="10"></path></g><g transform="translate(-6,10) scale(1,1)"><rect fill="#C0C0C0" stroke="none" x="151" y="7" width="73" height="37" opacity="0.2"></rect></g><g transform="translate(-6,10) scale(1,1)"><rect fill="#ffffff" stroke="none" x="144" y="0" width="73" height="37"></rect></g><g transform="translate(-6,10) scale(1,1)"><path fill="none" stroke="#000000" d="M 144 0 L 217 0 L 217 37 L 144 37 L 144 0 Z Z" stroke-miterlimit="10"></path></g><g transform="translate(-6,10) scale(1,1)"><g><path fill="none" stroke="none"></path><text fill="#000000" stroke="none" font-family="Arial" font-size="13px" font-style="normal" font-weight="normal" text-decoration="none" x="148.5" y="17.5">«interface»</text></g></g><g transform="translate(-6,10) scale(1,1)"><g><path fill="none" stroke="none"></path><text fill="#000000" stroke="none" font-family="Arial" font-size="13px" font-style="italic" font-weight="bold" text-decoration="none" x="163.5" y="32.5">Event</text></g></g><g transform="translate(-6,10) scale(1,1)"><path fill="none" stroke="#000000" d="M 180 127 L 180 38" stroke-miterlimit="10"></path></g><g transform="translate(-6,10) scale(1,1)"><rect fill="#C0C0C0" stroke="none" x="279" y="7" width="79" height="52" opacity="0.2"></rect></g><g transform="translate(-6,10) scale(1,1)"><rect fill="#ffffff" stroke="none" x="272" y="0" width="79" height="52"></rect></g><g transform="translate(-6,10) scale(1,1)"><path fill="none" stroke="#000000" d="M 272 0 L 351 0 L 351 52 L 272 52 L 272 0 Z Z" stroke-miterlimit="10"></path></g><g transform="translate(-6,10) scale(1,1)"><g><path fill="none" stroke="none"></path><text fill="#000000" stroke="none" font-family="Arial" font-size="13px" font-style="normal" font-weight="normal" text-decoration="none" x="279.5" y="17.5">«interface»</text></g></g><g transform="translate(-6,10) scale(1,1)"><g><path fill="none" stroke="none"></path><text fill="#000000" stroke="none" font-family="Arial" font-size="13px" font-style="italic" font-weight="bold" text-decoration="none" x="279" y="32.5">Personality</text></g></g><g transform="translate(-6,10) scale(1,1)"><g><path fill="none" stroke="none"></path><text fill="#000000" stroke="none" font-family="Arial" font-size="13px" font-style="normal" font-weight="normal" text-decoration="none" x="276.5" y="47.5">(from entity)</text></g></g><g transform="translate(-6,10) scale(1,1)"><rect fill="#C0C0C0" stroke="none" x="407" y="7" width="122" height="60" opacity="0.2"></rect></g><g transform="translate(-6,10) scale(1,1)"><rect fill="#ffffff" stroke="none" x="400" y="0" width="122" height="60"></rect></g><g transform="translate(-6,10) scale(1,1)"><path fill="none" stroke="#000000" d="M 400 0 L 522 0 L 522 60 L 400 60 L 400 0 Z Z" stroke-miterlimit="10"></path></g><g transform="translate(-6,10) scale(1,1)"><path fill="none" stroke="#000000" d="M 400 38 L 522 38" stroke-miterlimit="10"></path></g><g transform="translate(-6,10) scale(1,1)"><g><path fill="none" stroke="none"></path><text fill="#000000" stroke="none" font-family="Arial" font-size="13px" font-style="normal" font-weight="normal" text-decoration="none" x="429" y="17.5">«interface»</text></g></g><g transform="translate(-6,10) scale(1,1)"><g><path fill="none" stroke="none"></path><text fill="#000000" stroke="none" font-family="Arial" font-size="13px" font-style="italic" font-weight="bold" text-decoration="none" x="439" y="32.5">Kitchen</text></g></g><g transform="translate(-6,10) scale(1,1)"><g><path fill="none" stroke="none"></path><text fill="#000000" stroke="none" font-family="Arial" font-size="13px" font-style="normal" font-weight="normal" text-decoration="none" x="405" y="55.5">+orderCake(): Cake</text></g></g><g transform="translate(-6,10) scale(1,1)"><path fill="none" stroke="#000000" d="M 229 127 L 289 53" stroke-miterlimit="10"></path></g><g transform="translate(-6,10) scale(1,1)"><path fill="#000000" stroke="none" d="M 285.8692945881925 63.54507864477449 L 289 53 L 279.329760355548 58.24275359127896 L 275.1443569147332 70.08862647182909"></path></g><g transform="translate(-6,10) scale(1,1)"><path fill="none" stroke="#000000" d="M 285.8692945881925 63.54507864477449 L 289 53 L 279.329760355548 58.24275359127896 L 275.1443569147332 70.08862647182909 L 285.8692945881925 63.54507864477449" stroke-miterlimit="10"></path></g><g transform="translate(-6,10) scale(1,1)"><path fill="none" stroke="#000000" d="M 288 127 L 406 61" stroke-miterlimit="10"></path></g><g transform="translate(-6,10) scale(1,1)"><path fill="#FFFFFF" stroke="none" d="M 399.1853308614746 69.63482973384129 L 406 61 L 395.0755545814156 62.287047899796406 L 386.79932076329106 71.73936296290499"></path></g><g transform="translate(-6,10) scale(1,1)"><path fill="none" stroke="#000000" d="M 399.1853308614746 69.63482973384129 L 406 61 L 395.0755545814156 62.287047899796406 L 386.79932076329106 71.73936296290499 L 399.1853308614746 69.63482973384129" stroke-miterlimit="10"></path></g><g transform="translate(-6,10) scale(1,1)"><rect fill="#C0C0C0" stroke="none" x="407" y="135" width="114" height="60" opacity="0.2"></rect></g><g transform="translate(-6,10) scale(1,1)"><rect fill="#ffffff" stroke="none" x="400" y="128" width="114" height="60"></rect></g><g transform="translate(-6,10) scale(1,1)"><path fill="none" stroke="#000000" d="M 400 128 L 514 128 L 514 188 L 400 188 L 400 128 Z Z" stroke-miterlimit="10"></path></g><g transform="translate(-6,10) scale(1,1)"><path fill="none" stroke="#000000" d="M 400 166 L 514 166" stroke-miterlimit="10"></path></g><g transform="translate(-6,10) scale(1,1)"><g><path fill="none" stroke="none"></path><text fill="#000000" stroke="none" font-family="Arial" font-size="13px" font-style="normal" font-weight="normal" text-decoration="none" x="425" y="145.5">«interface»</text></g></g><g transform="translate(-6,10) scale(1,1)"><g><path fill="none" stroke="none"></path><text fill="#000000" stroke="none" font-family="Arial" font-size="13px" font-style="italic" font-weight="bold" text-decoration="none" x="442" y="160.5">Cake</text></g></g><g transform="translate(-6,10) scale(1,1)"><g><path fill="none" stroke="none"></path><text fill="#000000" stroke="none" font-family="Arial" font-size="13px" font-style="normal" font-weight="normal" text-decoration="none" x="405" y="183.5">+isALie(): boolean</text></g></g><g transform="translate(-6,10) scale(1,1)"><path fill="none" stroke="#000000" d="M 460 61 L 458 127" stroke-miterlimit="10"></path></g><g transform="translate(-6,10) scale(1,1)"><rect fill="#C0C0C0" stroke="none" x="79" y="335" width="207" height="90" opacity="0.2"></rect></g><g transform="translate(-6,10) scale(1,1)"><rect fill="#ffffff" stroke="none" x="72" y="328" width="207" height="90"></rect></g><g transform="translate(-6,10) scale(1,1)"><path fill="none" stroke="#000000" d="M 72 328 L 279 328 L 279 418 L 72 418 L 72 328 Z Z" stroke-miterlimit="10"></path></g><g transform="translate(-6,10) scale(1,1)"><path fill="none" stroke="#000000" d="M 72 366 L 279 366" stroke-miterlimit="10"></path></g><g transform="translate(-6,10) scale(1,1)"><g><path fill="none" stroke="none"></path><text fill="#000000" stroke="none" font-family="Arial" font-size="13px" font-style="normal" font-weight="normal" text-decoration="none" x="143.5" y="345.5">«interface»</text></g></g><g transform="translate(-6,10) scale(1,1)"><g><path fill="none" stroke="none"></path><text fill="#000000" stroke="none" font-family="Arial" font-size="13px" font-style="italic" font-weight="bold" text-decoration="none" x="153.5" y="360.5">Subject</text></g></g><g transform="translate(-6,10) scale(1,1)"><g><path fill="none" stroke="none"></path><text fill="#000000" stroke="none" font-family="Arial" font-size="13px" font-style="normal" font-weight="normal" text-decoration="none" x="77" y="383.5">+getPath(): Path</text></g></g><g transform="translate(-6,10) scale(1,1)"><g><path fill="none" stroke="none"></path><text fill="#000000" stroke="none" font-family="Arial" font-size="13px" font-style="normal" font-weight="normal" text-decoration="none" x="77" y="398.5">+getCurrentChamber(): Chamber</text></g></g><g transform="translate(-6,10) scale(1,1)"><g><path fill="none" stroke="none"></path><text fill="#000000" stroke="none" font-family="Arial" font-size="13px" font-style="normal" font-weight="normal" text-decoration="none" x="77" y="413.5">+getCurrentChallenge(): Challenge</text></g></g><g transform="translate(-6,10) scale(1,1)"><path fill="none" stroke="#000000" d="M 178 249 L 176 327" stroke-miterlimit="10"></path></g><g transform="translate(-6,10) scale(1,1)"><rect fill="#C0C0C0" stroke="none" x="407" y="231" width="79" height="37" opacity="0.2"></rect></g><g transform="translate(-6,10) scale(1,1)"><rect fill="#ffffff" stroke="none" x="400" y="224" width="79" height="37"></rect></g><g transform="translate(-6,10) scale(1,1)"><path fill="none" stroke="#000000" d="M 400 224 L 479 224 L 479 261 L 400 261 L 400 224 Z Z" stroke-miterlimit="10"></path></g><g transform="translate(-6,10) scale(1,1)"><g><path fill="none" stroke="none"></path><text fill="#000000" stroke="none" font-family="Arial" font-size="13px" font-style="normal" font-weight="normal" text-decoration="none" x="407.5" y="241.5">«interface»</text></g></g><g transform="translate(-6,10) scale(1,1)"><g><path fill="none" stroke="none"></path><text fill="#000000" stroke="none" font-family="Arial" font-size="13px" font-style="italic" font-weight="bold" text-decoration="none" x="411" y="256.5">Challenge</text></g></g><g transform="translate(-6,10) scale(1,1)"><path fill="none" stroke="#000000" d="M 268 327 L 399 262" stroke-miterlimit="10"></path></g><g transform="translate(-6,10) scale(1,1)"><rect fill="#C0C0C0" stroke="none" x="343" y="343" width="209" height="60" opacity="0.2"></rect></g><g transform="translate(-6,10) scale(1,1)"><rect fill="#ffffff" stroke="none" x="336" y="336" width="209" height="60"></rect></g><g transform="translate(-6,10) scale(1,1)"><path fill="none" stroke="#000000" d="M 336 336 L 545 336 L 545 396 L 336 396 L 336 336 Z Z" stroke-miterlimit="10"></path></g><g transform="translate(-6,10) scale(1,1)"><path fill="none" stroke="#000000" d="M 336 374 L 545 374" stroke-miterlimit="10"></path></g><g transform="translate(-6,10) scale(1,1)"><g><path fill="none" stroke="none"></path><text fill="#000000" stroke="none" font-family="Arial" font-size="13px" font-style="normal" font-weight="normal" text-decoration="none" x="408.5" y="353.5">«interface»</text></g></g><g transform="translate(-6,10) scale(1,1)"><g><path fill="none" stroke="none"></path><text fill="#000000" stroke="none" font-family="Arial" font-size="13px" font-style="italic" font-weight="bold" text-decoration="none" x="414.5" y="368.5">Chamber</text></g></g><g transform="translate(-6,10) scale(1,1)"><g><path fill="none" stroke="none"></path><text fill="#000000" stroke="none" font-family="Arial" font-size="13px" font-style="normal" font-weight="normal" text-decoration="none" x="341" y="391.5">+getChallenges(): List&lt;Challenge&gt;</text></g></g><g transform="translate(-6,10) scale(1,1)"><path fill="none" stroke="#000000" d="M 439 262 L 440 335" stroke-miterlimit="10"></path></g><g transform="translate(-6,10) scale(1,1)"><path fill="#000000" stroke="none" d="M 435.65167548768125 324.895937750807 L 440 335 L 444.0699211844751 324.7806193166043 L 439.69865840940656 313.0020638866784"></path></g><g transform="translate(-6,10) scale(1,1)"><path fill="none" stroke="#000000" d="M 435.65167548768125 324.895937750807 L 440 335 L 444.0699211844751 324.7806193166043 L 439.69865840940656 313.0020638866784 L 435.65167548768125 324.895937750807" stroke-miterlimit="10"></path></g><g transform="translate(-6,10) scale(1,1)"><rect fill="#C0C0C0" stroke="none" x="343" y="463" width="199" height="60" opacity="0.2"></rect></g><g transform="translate(-6,10) scale(1,1)"><rect fill="#ffffff" stroke="none" x="336" y="456" width="199" height="60"></rect></g><g transform="translate(-6,10) scale(1,1)"><path fill="none" stroke="#000000" d="M 336 456 L 535 456 L 535 516 L 336 516 L 336 456 Z Z" stroke-miterlimit="10"></path></g><g transform="translate(-6,10) scale(1,1)"><path fill="none" stroke="#000000" d="M 336 494 L 535 494" stroke-miterlimit="10"></path></g><g transform="translate(-6,10) scale(1,1)"><g><path fill="none" stroke="none"></path><text fill="#000000" stroke="none" font-family="Arial" font-size="13px" font-style="normal" font-weight="normal" text-decoration="none" x="403.5" y="473.5">«interface»</text></g></g><g transform="translate(-6,10) scale(1,1)"><g><path fill="none" stroke="none"></path><text fill="#000000" stroke="none" font-family="Arial" font-size="13px" font-style="italic" font-weight="bold" text-decoration="none" x="422" y="488.5">Path</text></g></g><g transform="translate(-6,10) scale(1,1)"><g><path fill="none" stroke="none"></path><text fill="#000000" stroke="none" font-family="Arial" font-size="13px" font-style="normal" font-weight="normal" text-decoration="none" x="341" y="511.5">+getChambers(): List&lt;Chamber&gt;</text></g></g><g transform="translate(-6,10) scale(1,1)"><path fill="none" stroke="#000000" d="M 439 397 L 436 455" stroke-miterlimit="10"></path></g><g transform="translate(-6,10) scale(1,1)"><path fill="#000000" stroke="none" d="M 432.3210558515227 444.6334494670414 L 436 455 L 440.72885182437324 445.06833546563706 L 437.13641187941687 433.02937033127364"></path></g><g transform="translate(-6,10) scale(1,1)"><path fill="none" stroke="#000000" d="M 432.3210558515227 444.6334494670414 L 436 455 L 440.72885182437324 445.06833546563706 L 437.13641187941687 433.02937033127364 L 432.3210558515227 444.6334494670414" stroke-miterlimit="10"></path></g><g transform="translate(-6,10) scale(1,1)"><path fill="none" stroke="#000000" d="M 280 419 L 364 455" stroke-miterlimit="10"></path></g></g></svg>