<svg version="1.1" xmlns="http://www.w3.org/2000/svg" xmlns:xlink="http://www.w3.org/1999/xlink" width="531" height="691"><defs></defs><g><g transform="translate(-6,-6) scale(1,1)"><path fill="#C0C0C0" stroke="none" d="M 51.5 34.5 C 51.5 28.1487248 56.6487248 23 63 23 C 69.3512752 23 74.5 28.1487248 74.5 34.5 C 74.5 40.8512752 69.3512752 46 63 46 C 56.6487248 46 51.5 40.8512752 51.5 34.5 Z" opacity="0.2"></path></g><g transform="translate(-6,-6) scale(1,1)"><path fill="#ffffff" stroke="none" d="M 44.5 27.5 C 44.5 21.1487248 49.6487248 16 56 16 C 62.3512752 16 67.5 21.1487248 67.5 27.5 C 67.5 33.8512752 62.3512752 39 56 39 C 49.6487248 39 44.5 33.8512752 44.5 27.5 Z"></path></g><g transform="translate(-6,-6) scale(1,1)"><path fill="none" stroke="#000000" d="M 44.5 27.5 C 44.5 21.1487248 49.6487248 16 56 16 C 62.3512752 16 67.5 21.1487248 67.5 27.5 C 67.5 33.8512752 62.3512752 39 56 39 C 49.6487248 39 44.5 33.8512752 44.5 27.5 Z" stroke-miterlimit="10"></path></g><g transform="translate(-6,-6) scale(1,1)"><g><path fill="none" stroke="none"></path><text fill="#000000" stroke="none" font-family="Arial" font-size="13px" font-style="normal" font-weight="bold" text-decoration="none" x="23.5" y="58.5">Suggestion</text></g></g><g transform="translate(-6,-6) scale(1,1)"><path fill="#C0C0C0" stroke="none" d="M 182 34.5 C 182 28.1487248 187.1487248 23 193.5 23 C 199.8512752 23 205 28.1487248 205 34.5 C 205 40.8512752 199.8512752 46 193.5 46 C 187.1487248 46 182 40.8512752 182 34.5 Z" opacity="0.2"></path></g><g transform="translate(-6,-6) scale(1,1)"><path fill="#ffffff" stroke="none" d="M 175 27.5 C 175 21.1487248 180.1487248 16 186.5 16 C 192.8512752 16 198 21.1487248 198 27.5 C 198 33.8512752 192.8512752 39 186.5 39 C 180.1487248 39 175 33.8512752 175 27.5 Z"></path></g><g transform="translate(-6,-6) scale(1,1)"><path fill="none" stroke="#000000" d="M 175 27.5 C 175 21.1487248 180.1487248 16 186.5 16 C 192.8512752 16 198 21.1487248 198 27.5 C 198 33.8512752 192.8512752 39 186.5 39 C 180.1487248 39 175 33.8512752 175 27.5 Z" stroke-miterlimit="10"></path></g><g transform="translate(-6,-6) scale(1,1)"><g><path fill="none" stroke="none"></path><text fill="#000000" stroke="none" font-family="Arial" font-size="13px" font-style="normal" font-weight="bold" text-decoration="none" x="169.5" y="58.5">Event</text></g></g><g transform="translate(-6,-6) scale(1,1)"><path fill="#C0C0C0" stroke="none" d="M 188 194.5 C 188 188.1487248 193.1487248 183 199.5 183 C 205.8512752 183 211 188.1487248 211 194.5 C 211 200.8512752 205.8512752 206 199.5 206 C 193.1487248 206 188 200.8512752 188 194.5 Z" opacity="0.2"></path></g><g transform="translate(-6,-6) scale(1,1)"><path fill="#ffffff" stroke="none" d="M 181 187.5 C 181 181.1487248 186.1487248 176 192.5 176 C 198.8512752 176 204 181.1487248 204 187.5 C 204 193.8512752 198.8512752 199 192.5 199 C 186.1487248 199 181 193.8512752 181 187.5 Z"></path></g><g transform="translate(-6,-6) scale(1,1)"><path fill="none" stroke="#000000" d="M 181 187.5 C 181 181.1487248 186.1487248 176 192.5 176 C 198.8512752 176 204 181.1487248 204 187.5 C 204 193.8512752 198.8512752 199 192.5 199 C 186.1487248 199 181 193.8512752 181 187.5 Z" stroke-miterlimit="10"></path></g><g transform="translate(-6,-6) scale(1,1)"><path fill="none" stroke="#000000" d="M 16 224 L 369 224" stroke-miterlimit="10"></path></g><g transform="translate(-6,-6) scale(1,1)"><g><path fill="none" stroke="none"></path><text fill="#000000" stroke="none" font-family="Arial" font-size="13px" font-style="normal" font-weight="bold" text-decoration="none" x="186" y="218.5">AI</text></g></g><g transform="translate(-6,-6) scale(1,1)"><g><path fill="none" stroke="none"></path><text fill="#000000" stroke="none" font-family="Arial" font-size="13px" font-style="normal" font-weight="normal" text-decoration="none" x="21" y="241.5">+setPersonality(personality: Personality)</text></g></g><g transform="translate(-6,-6) scale(1,1)"><g><path fill="none" stroke="none"></path><text fill="#000000" stroke="none" font-family="Arial" font-size="13px" font-style="normal" font-weight="normal" text-decoration="none" x="21" y="256.5">+registerView(view: Output)</text></g></g><g transform="translate(-6,-6) scale(1,1)"><g><path fill="none" stroke="none"></path><text fill="#000000" stroke="none" font-family="Arial" font-size="13px" font-style="normal" font-weight="normal" text-decoration="none" x="21" y="271.5">+computeSuggestion(s: Subject, e: Event): Suggestion</text></g></g><g transform="translate(-6,-6) scale(1,1)"><g><path fill="none" stroke="none"></path><text fill="#000000" stroke="none" font-family="Arial" font-size="13px" font-style="normal" font-weight="normal" text-decoration="none" x="21" y="286.5">+registerInputSource(in: Input)</text></g></g><g transform="translate(-6,-6) scale(1,1)"><path fill="#C0C0C0" stroke="none" d="M 187 362.5 C 187 356.1487248 192.1487248 351 198.5 351 C 204.8512752 351 210 356.1487248 210 362.5 C 210 368.8512752 204.8512752 374 198.5 374 C 192.1487248 374 187 368.8512752 187 362.5 Z" opacity="0.2"></path></g><g transform="translate(-6,-6) scale(1,1)"><path fill="#ffffff" stroke="none" d="M 180 355.5 C 180 349.1487248 185.1487248 344 191.5 344 C 197.8512752 344 203 349.1487248 203 355.5 C 203 361.8512752 197.8512752 367 191.5 367 C 185.1487248 367 180 361.8512752 180 355.5 Z"></path></g><g transform="translate(-6,-6) scale(1,1)"><path fill="none" stroke="#000000" d="M 180 355.5 C 180 349.1487248 185.1487248 344 191.5 344 C 197.8512752 344 203 349.1487248 203 355.5 C 203 361.8512752 197.8512752 367 191.5 367 C 185.1487248 367 180 361.8512752 180 355.5 Z" stroke-miterlimit="10"></path></g><g transform="translate(-6,-6) scale(1,1)"><path fill="none" stroke="#000000" d="M 88 392 L 295 392" stroke-miterlimit="10"></path></g><g transform="translate(-6,-6) scale(1,1)"><g><path fill="none" stroke="none"></path><text fill="#000000" stroke="none" font-family="Arial" font-size="13px" font-style="normal" font-weight="bold" text-decoration="none" x="169.5" y="386.5">Subject</text></g></g><g transform="translate(-6,-6) scale(1,1)"><g><path fill="none" stroke="none"></path><text fill="#000000" stroke="none" font-family="Arial" font-size="13px" font-style="normal" font-weight="normal" text-decoration="none" x="93" y="409.5">+getPath(): Path</text></g></g><g transform="translate(-6,-6) scale(1,1)"><g><path fill="none" stroke="none"></path><text fill="#000000" stroke="none" font-family="Arial" font-size="13px" font-style="normal" font-weight="normal" text-decoration="none" x="93" y="424.5">+getCurrentChamber(): Chamber</text></g></g><g transform="translate(-6,-6) scale(1,1)"><g><path fill="none" stroke="none"></path><text fill="#000000" stroke="none" font-family="Arial" font-size="13px" font-style="normal" font-weight="normal" text-decoration="none" x="93" y="439.5">+getCurrentChallenge(): Challenge</text></g></g><g transform="translate(-6,-6) scale(1,1)"><path fill="none" stroke="#000000" d="M 151 175 L 74 65" stroke-miterlimit="10"></path></g><g transform="translate(-6,-6) scale(1,1)"><path fill="none" stroke="#000000" d="M 83.27648266457538 70.91158772021802 L 74 65 L 76.37934003313542 75.73958756222599" stroke-miterlimit="10"></path></g><g transform="translate(-6,-6) scale(1,1)"><path fill="none" stroke="#000000" d="M 190 175 L 187 65" stroke-miterlimit="10"></path></g><g transform="translate(-6,-6) scale(1,1)"><path fill="none" stroke="#000000" d="M 191.4850139454228 75.04413510011504 L 187 65 L 183.06910773407952 75.27365981496986" stroke-miterlimit="10"></path></g><g transform="translate(-6,-6) scale(1,1)"><path fill="#C0C0C0" stroke="none" d="M 407 386.5 C 407 380.1487248 412.1487248 375 418.5 375 C 424.8512752 375 430 380.1487248 430 386.5 C 430 392.8512752 424.8512752 398 418.5 398 C 412.1487248 398 407 392.8512752 407 386.5 Z" opacity="0.2"></path></g><g transform="translate(-6,-6) scale(1,1)"><path fill="#ffffff" stroke="none" d="M 400 379.5 C 400 373.1487248 405.1487248 368 411.5 368 C 417.8512752 368 423 373.1487248 423 379.5 C 423 385.8512752 417.8512752 391 411.5 391 C 405.1487248 391 400 385.8512752 400 379.5 Z"></path></g><g transform="translate(-6,-6) scale(1,1)"><path fill="none" stroke="#000000" d="M 400 379.5 C 400 373.1487248 405.1487248 368 411.5 368 C 417.8512752 368 423 373.1487248 423 379.5 C 423 385.8512752 417.8512752 391 411.5 391 C 405.1487248 391 400 385.8512752 400 379.5 Z" stroke-miterlimit="10"></path></g><g transform="translate(-6,-6) scale(1,1)"><g><path fill="none" stroke="none"></path><text fill="#000000" stroke="none" font-family="Arial" font-size="13px" font-style="normal" font-weight="bold" text-decoration="none" x="383" y="410.5">Challenge</text></g></g><g transform="translate(-6,-6) scale(1,1)"><path fill="none" stroke="#000000" d="M 192 293 L 191 343" stroke-miterlimit="10"></path></g><g transform="translate(-6,-6) scale(1,1)"><path fill="none" stroke="#000000" d="M 186.9945367536925 332.755183545691 L 191 343 L 195.41188896359589 332.9235305898891" stroke-miterlimit="10"></path></g><g transform="translate(-6,-6) scale(1,1)"><path fill="none" stroke="#000000" d="M 296 393 L 375 392" stroke-miterlimit="10"></path></g><g transform="translate(-6,-6) scale(1,1)"><path fill="none" stroke="#000000" d="M 364.89141999741184 396.3378116984575 L 375 392 L 364.78485846451355 387.9194505994928" stroke-miterlimit="10"></path></g><g transform="translate(-6,-6) scale(1,1)"><path fill="#C0C0C0" stroke="none" d="M 188 506.5 C 188 500.1487248 193.1487248 495 199.5 495 C 205.8512752 495 211 500.1487248 211 506.5 C 211 512.8512752 205.8512752 518 199.5 518 C 193.1487248 518 188 512.8512752 188 506.5 Z" opacity="0.2"></path></g><g transform="translate(-6,-6) scale(1,1)"><path fill="#ffffff" stroke="none" d="M 181 499.5 C 181 493.1487248 186.1487248 488 192.5 488 C 198.8512752 488 204 493.1487248 204 499.5 C 204 505.8512752 198.8512752 511 192.5 511 C 186.1487248 511 181 505.8512752 181 499.5 Z"></path></g><g transform="translate(-6,-6) scale(1,1)"><path fill="none" stroke="#000000" d="M 181 499.5 C 181 493.1487248 186.1487248 488 192.5 488 C 198.8512752 488 204 493.1487248 204 499.5 C 204 505.8512752 198.8512752 511 192.5 511 C 186.1487248 511 181 505.8512752 181 499.5 Z" stroke-miterlimit="10"></path></g><g transform="translate(-6,-6) scale(1,1)"><path fill="none" stroke="#000000" d="M 88 536 L 297 536" stroke-miterlimit="10"></path></g><g transform="translate(-6,-6) scale(1,1)"><g><path fill="none" stroke="none"></path><text fill="#000000" stroke="none" font-family="Arial" font-size="13px" font-style="normal" font-weight="bold" text-decoration="none" x="166.5" y="530.5">Chamber</text></g></g><g transform="translate(-6,-6) scale(1,1)"><g><path fill="none" stroke="none"></path><text fill="#000000" stroke="none" font-family="Arial" font-size="13px" font-style="normal" font-weight="normal" text-decoration="none" x="93" y="553.5">+getChallenges(): List&lt;Challenge&gt;</text></g></g><g transform="translate(-6,-6) scale(1,1)"><path fill="#C0C0C0" stroke="none" d="M 191 634.5 C 191 628.1487248 196.1487248 623 202.5 623 C 208.8512752 623 214 628.1487248 214 634.5 C 214 640.8512752 208.8512752 646 202.5 646 C 196.1487248 646 191 640.8512752 191 634.5 Z" opacity="0.2"></path></g><g transform="translate(-6,-6) scale(1,1)"><path fill="#ffffff" stroke="none" d="M 184 627.5 C 184 621.1487248 189.1487248 616 195.5 616 C 201.8512752 616 207 621.1487248 207 627.5 C 207 633.8512752 201.8512752 639 195.5 639 C 189.1487248 639 184 633.8512752 184 627.5 Z"></path></g><g transform="translate(-6,-6) scale(1,1)"><path fill="none" stroke="#000000" d="M 184 627.5 C 184 621.1487248 189.1487248 616 195.5 616 C 201.8512752 616 207 621.1487248 207 627.5 C 207 633.8512752 201.8512752 639 195.5 639 C 189.1487248 639 184 633.8512752 184 627.5 Z" stroke-miterlimit="10"></path></g><g transform="translate(-6,-6) scale(1,1)"><path fill="none" stroke="#000000" d="M 96 664 L 295 664" stroke-miterlimit="10"></path></g><g transform="translate(-6,-6) scale(1,1)"><g><path fill="none" stroke="none"></path><text fill="#000000" stroke="none" font-family="Arial" font-size="13px" font-style="normal" font-weight="bold" text-decoration="none" x="182" y="658.5">Path</text></g></g><g transform="translate(-6,-6) scale(1,1)"><g><path fill="none" stroke="none"></path><text fill="#000000" stroke="none" font-family="Arial" font-size="13px" font-style="normal" font-weight="normal" text-decoration="none" x="101" y="681.5">+getChambers(): List&lt;Chamber&gt;</text></g></g><g transform="translate(-6,-6) scale(1,1)"><path fill="none" stroke="#000000" d="M 375 414 L 252 487" stroke-miterlimit="10"></path></g><g transform="translate(-6,-6) scale(1,1)"><path fill="#000000" stroke="none" d="M 258.59095682784806 478.1932248755039 L 252 487 L 262.8878406783953 485.43317985656296 L 270.918914091248 475.77170139299915"></path></g><g transform="translate(-6,-6) scale(1,1)"><path fill="none" stroke="#000000" d="M 258.59095682784806 478.1932248755039 L 252 487 L 262.8878406783953 485.43317985656296 L 270.918914091248 475.77170139299915 L 258.59095682784806 478.1932248755039" stroke-miterlimit="10"></path></g><g transform="translate(-6,-6) scale(1,1)"><path fill="none" stroke="#000000" d="M 193 560 L 194 615" stroke-miterlimit="10"></path></g><g transform="translate(-6,-6) scale(1,1)"><path fill="#000000" stroke="none" d="M 189.60643248698065 604.9155285459009 L 194 615 L 198.0240767678188 604.7624804680675 L 193.6000660993147 593.0036354623069"></path></g><g transform="translate(-6,-6) scale(1,1)"><path fill="none" stroke="#000000" d="M 189.60643248698065 604.9155285459009 L 194 615 L 198.0240767678188 604.7624804680675 L 193.6000660993147 593.0036354623069 L 189.60643248698065 604.9155285459009" stroke-miterlimit="10"></path></g><g transform="translate(-6,-6) scale(1,1)"><path fill="none" stroke="#000000" d="M 191 446 L 192 487" stroke-miterlimit="10"></path></g><g transform="translate(-6,-6) scale(1,1)"><path fill="none" stroke="#000000" d="M 187.54393734862802 476.94298724038555 L 192 487 L 195.96046980262577 476.73770596101974" stroke-miterlimit="10"></path></g><g transform="translate(-6,-6) scale(1,1)"><path fill="#C0C0C0" stroke="none" d="M 447 34.5 C 447 28.1487248 452.1487248 23 458.5 23 C 464.8512752 23 470 28.1487248 470 34.5 C 470 40.8512752 464.8512752 46 458.5 46 C 452.1487248 46 447 40.8512752 447 34.5 Z" opacity="0.2"></path></g><g transform="translate(-6,-6) scale(1,1)"><path fill="#ffffff" stroke="none" d="M 440 27.5 C 440 21.1487248 445.1487248 16 451.5 16 C 457.8512752 16 463 21.1487248 463 27.5 C 463 33.8512752 457.8512752 39 451.5 39 C 445.1487248 39 440 33.8512752 440 27.5 Z"></path></g><g transform="translate(-6,-6) scale(1,1)"><path fill="none" stroke="#000000" d="M 440 27.5 C 440 21.1487248 445.1487248 16 451.5 16 C 457.8512752 16 463 21.1487248 463 27.5 C 463 33.8512752 457.8512752 39 451.5 39 C 445.1487248 39 440 33.8512752 440 27.5 Z" stroke-miterlimit="10"></path></g><g transform="translate(-6,-6) scale(1,1)"><path fill="none" stroke="#000000" d="M 376 64 L 527 64" stroke-miterlimit="10"></path></g><g transform="translate(-6,-6) scale(1,1)"><g><path fill="none" stroke="none"></path><text fill="#000000" stroke="none" font-family="Arial" font-size="13px" font-style="normal" font-weight="bold" text-decoration="none" x="429.5" y="58.5">Kitchen</text></g></g><g transform="translate(-6,-6) scale(1,1)"><g><path fill="none" stroke="none"></path><text fill="#000000" stroke="none" font-family="Arial" font-size="13px" font-style="normal" font-weight="normal" text-decoration="none" x="381" y="81.5">+orderCake(): Cake</text></g></g><g transform="translate(-6,-6) scale(1,1)"><path fill="none" stroke="#000000" d="M 276 175 L 399 88" stroke-miterlimit="10"></path></g><g transform="translate(-6,-6) scale(1,1)"><path fill="#C0C0C0" stroke="none" d="M 444.5 138.5 C 444.5 132.1487248 449.6487248 127 456 127 C 462.3512752 127 467.5 132.1487248 467.5 138.5 C 467.5 144.8512752 462.3512752 150 456 150 C 449.6487248 150 444.5 144.8512752 444.5 138.5 Z" opacity="0.2"></path></g><g transform="translate(-6,-6) scale(1,1)"><path fill="#ffffff" stroke="none" d="M 437.5 131.5 C 437.5 125.1487248 442.6487248 120 449 120 C 455.3512752 120 460.5 125.1487248 460.5 131.5 C 460.5 137.8512752 455.3512752 143 449 143 C 442.6487248 143 437.5 137.8512752 437.5 131.5 Z"></path></g><g transform="translate(-6,-6) scale(1,1)"><path fill="none" stroke="#000000" d="M 437.5 131.5 C 437.5 125.1487248 442.6487248 120 449 120 C 455.3512752 120 460.5 125.1487248 460.5 131.5 C 460.5 137.8512752 455.3512752 143 449 143 C 442.6487248 143 437.5 137.8512752 437.5 131.5 Z" stroke-miterlimit="10"></path></g><g transform="translate(-6,-6) scale(1,1)"><path fill="none" stroke="#000000" d="M 392 168 L 506 168" stroke-miterlimit="10"></path></g><g transform="translate(-6,-6) scale(1,1)"><g><path fill="none" stroke="none"></path><text fill="#000000" stroke="none" font-family="Arial" font-size="13px" font-style="normal" font-weight="bold" text-decoration="none" x="434" y="162.5">Cake</text></g></g><g transform="translate(-6,-6) scale(1,1)"><g><path fill="none" stroke="none"></path><text fill="#000000" stroke="none" font-family="Arial" font-size="13px" font-style="normal" font-weight="normal" text-decoration="none" x="397" y="185.5">+isALie(): boolean</text></g></g><g transform="translate(-6,-6) scale(1,1)"><path fill="none" stroke="#000000" d="M 450 88 L 450 119" stroke-miterlimit="10"></path></g><g transform="translate(-6,-6) scale(1,1)"><path fill="none" stroke="#000000" d="M 445.790482243984 108.83732514237585 L 450 119 L 454.209517756016 108.83732514237585" stroke-miterlimit="10"></path></g><g transform="translate(-6,-6) scale(1,1)"><path fill="#C0C0C0" stroke="none" d="M 299 34.5 C 299 28.1487248 304.1487248 23 310.5 23 C 316.8512752 23 322 28.1487248 322 34.5 C 322 40.8512752 316.8512752 46 310.5 46 C 304.1487248 46 299 40.8512752 299 34.5 Z" opacity="0.2"></path></g><g transform="translate(-6,-6) scale(1,1)"><path fill="#ffffff" stroke="none" d="M 292 27.5 C 292 21.1487248 297.1487248 16 303.5 16 C 309.8512752 16 315 21.1487248 315 27.5 C 315 33.8512752 309.8512752 39 303.5 39 C 297.1487248 39 292 33.8512752 292 27.5 Z"></path></g><g transform="translate(-6,-6) scale(1,1)"><path fill="none" stroke="#000000" d="M 292 27.5 C 292 21.1487248 297.1487248 16 303.5 16 C 309.8512752 16 315 21.1487248 315 27.5 C 315 33.8512752 309.8512752 39 303.5 39 C 297.1487248 39 292 33.8512752 292 27.5 Z" stroke-miterlimit="10"></path></g><g transform="translate(-6,-6) scale(1,1)"><g><path fill="none" stroke="none"></path><text fill="#000000" stroke="none" font-family="Arial" font-size="13px" font-style="normal" font-weight="bold" text-decoration="none" x="271" y="58.5">Personality</text></g></g><g transform="translate(-6,-6) scale(1,1)"><path fill="none" stroke="#000000" d="M 226 175 L 289 65" stroke-miterlimit="10"></path></g><g transform="translate(-6,-6) scale(1,1)"><path fill="#000000" stroke="none" d="M 287.60210959946335 75.91081584612661 L 289 65 L 280.2964303453512 71.72665409149874 L 278.06625842470214 84.09065989337725"></path></g><g transform="translate(-6,-6) scale(1,1)"><path fill="none" stroke="#000000" d="M 287.60210959946335 75.91081584612661 L 289 65 L 280.2964303453512 71.72665409149874 L 278.06625842470214 84.09065989337725 L 287.60210959946335 75.91081584612661" stroke-miterlimit="10"></path></g><g transform="translate(-6,-6) scale(1,1)"><g><path fill="none" stroke="none"></path><text fill="#000000" stroke="none" font-family="Arial" font-size="13px" font-style="normal" font-weight="normal" text-decoration="none" x="211" y="152">+has</text></g></g></g></svg>